<svg xmlns="http://www.w3.org/2000/svg" viewBox="0 0 64 64" fill="none">
  <defs><linearGradient id="p" x1="15" y1="11" x2="50" y2="54" gradientUnits="userSpaceOnUse"><stop stop-color="#ff9a66"/><stop offset=".42" stop-color="#ff4d3f"/><stop offset="1" stop-color="#c20f35"/></linearGradient><linearGradient id="l" x1="34" y1="17" x2="54" y2="7" gradientUnits="userSpaceOnUse"><stop stop-color="#d8b4ff"/><stop offset=".48" stop-color="#a56bff"/><stop offset="1" stop-color="#7047eb"/></linearGradient></defs>
  <rect width="64" height="64" rx="16" fill="#101212"/>
  <path d="M17 23C21.3 15.4 30.7 13.2 38 17.2C47.1 22.2 48.6 33 42.6 41.8C37.1 49.8 27.2 54.5 10 54C20.4 47.7 20.8 38.5 16.5 32.6C14.2 29.4 14.5 26.8 17 23Z" fill="url(#p)"/>
  <path d="M18.7 26C22.5 19.5 30.8 17.9 37.2 21.4C40.2 23 42.2 25.5 43.1 28.3" stroke="#ffd0b6" stroke-width="3" stroke-linecap="round" opacity=".72"/>
  <path d="M34.3 16.8C37.7 11 43.8 8.3 52.7 8.9C49.4 15 44.2 18.3 37.2 18.9" fill="url(#l)"/>
</svg>
